<svg viewBox="0 0 96 96" fill="none" xmlns="http://www.w3.org/2000/svg">
  <circle cx="48" cy="48" r="32" fill="white" />
  <path
    d="M37.7854 7.28103C39.287 7.98125 39.9367 9.76619 39.2365 11.2678L37.707 14.5477C40.0964 13.8125 42.565 13.3332 45.0713 13.1227C50.2052 12.6916 55.3711 13.3993 60.2 15.1951C65.0289 16.991 69.4018 19.8308 73.0065 23.5118C76.6112 27.1928 79.3588 31.6242 81.0532 36.4897C81.598 38.0544 80.7713 39.7645 79.2066 40.3094C77.6419 40.8543 75.9318 40.0276 75.3869 38.4629C73.983 34.4315 71.7064 30.7597 68.7197 27.7098C65.7329 24.6598 62.1097 22.3068 58.1086 20.8188C54.1075 19.3308 49.8272 18.7445 45.5733 19.1017C43.3764 19.2862 41.2144 19.72 39.128 20.3904L43.2577 22.3161C44.7593 23.0163 45.409 24.8013 44.7088 26.3029C44.0086 27.8045 42.2236 28.4542 40.722 27.754L30.4683 22.9726C28.9667 22.2724 28.317 20.4874 29.0172 18.9858L33.7986 8.7321C34.4988 7.23048 36.2838 6.58082 37.7854 7.28103Z"
    fill="currentColor" />
  <path
    d="M76.4259 53.7415L72.7207 56.3359C71.3635 57.2863 69.4929 56.9564 68.5426 55.5992C67.5922 54.242 67.9221 52.3713 69.2793 51.421L78.5469 44.9317C79.9041 43.9814 81.7748 44.3112 82.7251 45.6685L89.2144 54.9361C90.1647 56.2933 89.8349 58.164 88.4777 59.1143C87.1205 60.0646 85.2498 59.7348 84.2995 58.3776L82.2101 55.3936C81.6518 57.9769 80.801 60.4964 79.6689 62.9023C77.4753 67.564 74.2795 71.6839 70.3098 74.968C66.3401 78.252 61.6943 80.6191 56.7041 81.9004C51.7139 83.1817 46.5024 83.3454 41.4416 82.38C39.8141 82.0696 38.7465 80.4985 39.0569 78.871C39.3674 77.2435 40.9384 76.1759 42.5659 76.4863C46.7592 77.2862 51.0773 77.1505 55.212 76.0889C59.3467 75.0273 63.1961 73.0659 66.4853 70.3449C69.7745 67.6238 72.4224 64.2101 74.24 60.3476C75.2341 58.2349 75.9664 56.0165 76.4259 53.7415Z"
    fill="currentColor" />
  <path
    d="M24.0638 73.8075L21.0553 73.8665C19.3988 73.899 18.0822 75.2682 18.1147 76.9247C18.1472 78.5813 19.5164 79.8978 21.173 79.8653L32.4845 79.6435C34.141 79.611 35.4576 78.2418 35.4251 76.5853L35.2033 65.2737C35.1708 63.6172 33.8016 62.3006 32.1451 62.3331C30.4885 62.3656 29.172 63.7348 29.2045 65.3914L29.3037 70.4502C27.4223 68.8486 25.7478 67.0083 24.3249 64.9705C21.8811 61.4704 20.2401 57.4739 19.5192 53.2664C18.7982 49.0589 19.015 44.7441 20.1541 40.6301C21.2932 36.516 23.3266 32.7042 26.109 29.4667C27.1889 28.2101 27.0457 26.316 25.7891 25.2361C24.5326 24.1562 22.6385 24.2994 21.5586 25.5559C18.2005 29.4633 15.7465 34.0638 14.3717 39.029C12.9969 43.9942 12.7352 49.2017 13.6054 54.2798C14.4755 59.3578 16.456 64.1811 19.4054 68.4054C20.7743 70.3659 22.3363 72.175 24.0638 73.8075Z"
    fill="currentColor" />
</svg>